<svg width="20" height="21" viewBox="0 0 20 21" fill="none" xmlns="http://www.w3.org/2000/svg">
<mask id="mask0_282_818" style="mask-type:luminance" maskUnits="userSpaceOnUse" x="-1" y="0" width="21" height="21">
<path d="M19.7531 0.932983H-0.00488281V20.648H19.7531V0.932983Z" fill="white"/>
</mask>
<g mask="url(#mask0_282_818)">
<path d="M-0.00585938 7.50599C0.202884 6.61715 0.474569 5.74428 0.807141 4.89399C1.59094 3.37129 2.89375 2.17932 4.47996 1.53365C6.06617 0.887969 7.83106 0.83121 9.45548 1.37363C11.0799 1.91605 12.4566 3.02185 13.3366 4.49104C14.2166 5.96023 14.5419 7.69583 14.2535 9.38397C13.9652 11.0721 13.0823 12.6013 11.7645 13.6951C10.4467 14.7889 8.78096 15.375 7.06859 15.3475C5.35622 15.3199 3.71023 14.6805 2.42828 13.545C1.14633 12.4094 0.313056 10.8525 0.0791406 9.15599C0.0591406 9.01399 0.0231406 8.87399 -0.00585938 8.73299V7.50599ZM7.23714 2.73299C6.16699 2.7322 5.12063 3.04875 4.23038 3.64262C3.34013 4.23648 2.64596 5.08099 2.23566 6.06936C1.82535 7.05773 1.71733 8.14557 1.92526 9.19533C2.13319 10.2451 2.64773 11.2096 3.40381 11.967C4.15989 12.7243 5.12356 13.2404 6.17297 13.4501C7.22238 13.6598 8.3104 13.5536 9.29945 13.1449C10.2885 12.7363 11.1342 12.0435 11.7295 11.1542C12.3249 10.265 12.6432 9.21914 12.6441 8.14899C12.635 6.71696 12.0627 5.34604 11.0509 4.33258C10.0391 3.31912 8.66916 2.74452 7.23714 2.73299Z" fill="white"/>
<path d="M16.4172 20.6479C16.0317 20.3753 15.6685 20.0723 15.3312 19.7419C14.1752 18.4269 13.0532 17.0839 11.9212 15.7479C11.4612 15.2049 11.5132 14.9909 12.0442 14.5199C12.598 14.027 13.1232 13.5028 13.6172 12.9499C14.0742 12.4399 14.3032 12.3799 14.8172 12.8119C16.2459 14.0153 17.6715 15.2223 19.0942 16.4329C19.2893 16.5534 19.4516 16.7203 19.5667 16.9186C19.6817 17.1169 19.746 17.3406 19.7539 17.5698C19.7617 17.799 19.7128 18.0265 19.6115 18.2322C19.5102 18.4379 19.3596 18.6154 19.1732 18.7489C18.8132 19.1109 18.4642 19.4869 18.0842 19.8269C17.7532 20.1269 17.3842 20.3769 17.0332 20.6489L16.4172 20.6479Z" fill="white"/>
<path d="M5.86819 8.60702C5.55519 8.17402 5.29119 7.79602 5.01319 7.42902C4.93347 7.33262 4.83562 7.25278 4.72518 7.19402C4.62839 7.15007 4.54428 7.08235 4.48071 6.99715C4.41713 6.91194 4.37615 6.81204 4.36158 6.70674C4.34701 6.60143 4.35932 6.49415 4.39736 6.39489C4.43541 6.29562 4.49796 6.20761 4.57918 6.13902C4.69533 6.02104 4.77814 5.8744 4.81919 5.71402C4.90727 5.15011 5.19104 4.6352 5.62075 4.25956C6.05045 3.88392 6.59867 3.67152 7.16929 3.65959C7.73991 3.64766 8.29652 3.83697 8.74155 4.19433C9.18658 4.55168 9.49161 5.05429 9.60319 5.61402C9.67003 5.82631 9.77961 6.02267 9.92519 6.19102C9.98651 6.25845 10.0327 6.33822 10.0607 6.42497C10.0886 6.51172 10.0977 6.60345 10.0873 6.694C10.0768 6.78455 10.0472 6.87181 10.0003 6.94995C9.95332 7.02809 9.89022 7.09528 9.81519 7.14702C9.62639 7.30867 9.45329 7.4878 9.29819 7.68202C9.05019 7.96502 8.81219 8.25702 8.56619 8.54802C8.66767 8.87668 8.87113 9.16451 9.1471 9.36982C9.42307 9.57514 9.75723 9.68728 10.1012 9.69002C10.9362 9.80702 11.1622 10.111 11.1402 10.933C11.1212 11.0594 11.0652 11.1774 10.9792 11.272C10.5199 11.8175 9.94728 12.2564 9.30115 12.5581C8.65502 12.8597 7.95091 13.017 7.23782 13.0189C6.52473 13.0208 5.8198 12.8673 5.17207 12.5691C4.52433 12.2709 3.94937 11.8351 3.48719 11.292C3.40139 11.159 3.34703 11.0081 3.3282 10.8509C3.30937 10.6937 3.32658 10.5343 3.37853 10.3847C3.43047 10.2351 3.51578 10.0993 3.628 9.98765C3.74021 9.87595 3.87638 9.79127 4.02619 9.74002C4.19719 9.70202 4.36919 9.66602 4.54019 9.62902C5.42219 9.44002 5.47519 9.40002 5.86819 8.60702Z" fill="white"/>
</g>
</svg>
