<svg width="20" height="21" viewBox="0 0 20 21" fill="none" xmlns="http://www.w3.org/2000/svg">
<mask id="mask0_282_843" style="mask-type:luminance" maskUnits="userSpaceOnUse" x="0" y="0" width="20" height="21">
<path d="M19.077 0.297974H0.355957V20.5H19.077V0.297974Z" fill="white"/>
</mask>
<g mask="url(#mask0_282_843)">
<path d="M14.4739 20.5C14.2359 20.461 13.9979 20.426 13.7609 20.383C13.0273 20.259 12.3423 19.9343 11.7819 19.445C11.1399 18.9107 10.6607 18.207 10.399 17.4138C10.1373 16.6206 10.1035 15.7699 10.3015 14.9584C10.4994 14.147 10.9213 13.4075 11.5189 12.824C12.1165 12.2405 12.866 11.8365 13.6819 11.658C14.2612 11.5346 14.8593 11.5279 15.4413 11.6382C16.0232 11.7486 16.5773 11.9737 17.0713 12.3006C17.5653 12.6275 17.9891 13.0495 18.3182 13.542C18.6472 14.0345 18.8749 14.5876 18.9878 15.169C19.1007 15.7505 19.0967 16.3486 18.9759 16.9285C18.8551 17.5083 18.62 18.0583 18.2843 18.5463C17.9486 19.0343 17.5191 19.4505 17.0207 19.7707C16.5224 20.0908 15.9653 20.3085 15.3819 20.411C15.1919 20.447 14.9989 20.471 14.8069 20.501L14.4739 20.5ZM13.7099 16.42C13.4179 16.125 13.1459 15.841 12.8639 15.569C12.8036 15.5031 12.7304 15.4503 12.6489 15.414C12.5673 15.3776 12.4791 15.3584 12.3899 15.3576C12.3006 15.3567 12.2121 15.3742 12.1298 15.4091C12.0476 15.4439 11.9734 15.4952 11.9119 15.56C11.8456 15.6201 11.7926 15.6935 11.7563 15.7754C11.72 15.8573 11.7013 15.9459 11.7013 16.0355C11.7013 16.125 11.72 16.2136 11.7563 16.2955C11.7926 16.3774 11.8456 16.4508 11.9119 16.511C12.3466 16.963 12.7899 17.4066 13.2419 17.842C13.3025 17.9085 13.3762 17.9618 13.4583 17.9985C13.5405 18.0352 13.6294 18.0545 13.7194 18.0551C13.8094 18.0558 13.8985 18.0378 13.9812 18.0023C14.0639 17.9668 14.1384 17.9146 14.1999 17.849C15.1129 16.949 16.0239 16.049 16.9109 15.119C16.9797 15.0362 17.0311 14.9404 17.0621 14.8373C17.093 14.7342 17.1028 14.6259 17.0909 14.519C17.0674 14.3942 17.0086 14.2789 16.9216 14.1865C16.8345 14.0942 16.7228 14.0287 16.5997 13.9979C16.4766 13.9671 16.3472 13.9722 16.2269 14.0126C16.1066 14.053 16.0004 14.127 15.9209 14.226C15.1889 14.949 14.4629 15.678 13.7129 16.426" fill="white"/>
<path d="M0.355957 3.79495C0.413338 3.6617 0.512961 3.55103 0.639464 3.48001C0.765966 3.40899 0.912321 3.38156 1.05596 3.40195C1.68296 3.41995 2.31096 3.40895 2.93796 3.41195C2.95496 3.41195 2.97096 3.42695 2.97896 3.43095V4.43295H1.41196V19.4579H1.71896C4.39762 19.4579 7.07629 19.4579 9.75496 19.4579C9.85021 19.4493 9.9461 19.465 10.0336 19.5037C10.1211 19.5424 10.1972 19.6027 10.255 19.6789C10.495 19.9729 10.778 20.231 11.043 20.505H0.355957V3.79495Z" fill="white"/>
<path d="M6.25506 2.39197C6.25506 2.14697 6.24906 1.95097 6.25506 1.75497C6.25918 1.55786 6.30241 1.36353 6.38223 1.18326C6.46205 1.00299 6.57688 0.840366 6.72005 0.704825C6.86322 0.569283 7.03189 0.463523 7.21625 0.393681C7.40062 0.32384 7.59702 0.291306 7.79406 0.29797C8.19188 0.29797 8.57341 0.456005 8.85472 0.73731C9.13602 1.01861 9.29406 1.40015 9.29406 1.79797C9.29406 1.98397 9.29406 2.16897 9.29406 2.38997H10.0051C10.2066 2.3814 10.4078 2.41276 10.5972 2.48226C10.7866 2.55175 10.9603 2.65801 11.1085 2.79491C11.2566 2.93181 11.3762 3.09665 11.4604 3.27995C11.5446 3.46325 11.5917 3.66139 11.5991 3.86297C11.61 4.06709 11.5794 4.27131 11.5091 4.46324C11.4387 4.65517 11.3301 4.8308 11.1899 4.97949C11.0496 5.12818 10.8806 5.24682 10.6931 5.32821C10.5056 5.4096 10.3035 5.45205 10.0991 5.45297C8.55372 5.4783 7.00806 5.4783 5.46206 5.45297C5.25732 5.45476 5.05439 5.41461 4.86576 5.335C4.67713 5.2554 4.50679 5.13802 4.36523 4.99009C4.22368 4.84217 4.11391 4.66683 4.04268 4.47488C3.97145 4.28293 3.94027 4.07843 3.95106 3.87397C3.95462 3.67223 3.99849 3.47325 4.0801 3.28872C4.1617 3.10419 4.27939 2.93784 4.42624 2.79948C4.57309 2.66111 4.74612 2.55351 4.93517 2.48301C5.12422 2.41251 5.32547 2.38054 5.52706 2.38897H6.25706M7.75706 4.58897C8.49706 4.58897 9.23806 4.58897 9.97806 4.58897C10.0736 4.59876 10.1702 4.58878 10.2617 4.55965C10.3532 4.53052 10.4378 4.48285 10.5101 4.41963C10.5825 4.35641 10.641 4.27898 10.6821 4.19216C10.7232 4.10533 10.746 4.01098 10.7491 3.91497C10.7457 3.81842 10.7226 3.72357 10.6812 3.63627C10.6398 3.54896 10.5811 3.47103 10.5085 3.40725C10.4359 3.34348 10.3511 3.29521 10.2592 3.26542C10.1673 3.23562 10.0702 3.22492 9.97406 3.23397C8.50272 3.23397 7.03139 3.23397 5.56006 3.23397C5.46407 3.22486 5.36724 3.23568 5.27563 3.26575C5.18403 3.29582 5.09962 3.34449 5.0277 3.40871C4.95578 3.47293 4.89791 3.55131 4.8577 3.63894C4.8175 3.72658 4.79583 3.82157 4.79406 3.91797C4.79558 4.01423 4.81735 4.10909 4.85794 4.19639C4.89853 4.28369 4.95704 4.36146 5.02967 4.42466C5.1023 4.48785 5.18742 4.53505 5.27949 4.56319C5.37156 4.59133 5.46852 4.59977 5.56406 4.58797C6.29506 4.58797 7.02606 4.58897 7.75706 4.58897Z" fill="white"/>
<path d="M14.151 4.43897H12.551V3.40696C13.259 3.40696 13.969 3.40096 14.679 3.40696C14.8026 3.40767 14.9214 3.45506 15.0115 3.53962C15.1016 3.62418 15.1565 3.73968 15.165 3.86296C15.1735 3.92928 15.1768 3.99614 15.175 4.06297C15.175 6.06697 15.175 8.07096 15.175 10.075C15.175 10.148 15.167 10.221 15.163 10.304H14.151V4.43897Z" fill="white"/>
<path d="M7.81186 6.89294C9.17919 6.89294 10.5459 6.89294 11.9119 6.89294C12.1119 6.89294 12.3119 6.94294 12.3639 7.14394C12.4095 7.30715 12.3902 7.48171 12.3099 7.63094C12.1941 7.74649 12.0384 7.81309 11.8749 7.81695C11.5209 7.84395 11.1639 7.82594 10.8079 7.82594H3.72986C3.36686 7.82594 3.15786 7.68195 3.12486 7.41695C3.08586 7.10495 3.27786 6.89694 3.62486 6.89494C4.74886 6.89494 5.87186 6.89494 6.99586 6.89494H7.81086L7.81186 6.89294Z" fill="white"/>
<path d="M5.41494 10.3669C4.81494 10.3669 4.21494 10.3669 3.61494 10.3669C3.552 10.3756 3.48792 10.3705 3.42711 10.3521C3.36631 10.3336 3.31022 10.3022 3.26271 10.26C3.2152 10.2179 3.17739 10.1659 3.15188 10.1077C3.12637 10.0495 3.11377 9.98645 3.11494 9.92291C3.11018 9.85679 3.11998 9.79043 3.14367 9.7285C3.16736 9.66658 3.20435 9.61061 3.25204 9.56455C3.29972 9.51848 3.35694 9.48343 3.41964 9.4619C3.48235 9.44037 3.54902 9.43286 3.61494 9.43991C4.82094 9.43458 6.02727 9.43458 7.23394 9.43991C7.29964 9.4324 7.36619 9.43958 7.42878 9.46095C7.49136 9.48233 7.54841 9.51736 7.59578 9.56349C7.64316 9.60963 7.67969 9.66572 7.70272 9.72771C7.72575 9.7897 7.73471 9.85604 7.72894 9.92192C7.73098 9.9857 7.71897 10.0491 7.69375 10.1078C7.66852 10.1664 7.63072 10.2187 7.583 10.2611C7.53529 10.3035 7.47883 10.3348 7.41765 10.3529C7.35646 10.3711 7.29203 10.3755 7.22894 10.3659C6.62094 10.3659 6.01294 10.3659 5.40494 10.3659M4.13594 10.2659L4.14694 10.2849H7.02794C7.02794 10.2789 7.02794 10.2719 7.02794 10.2659H4.13594Z" fill="white"/>
<path d="M5.44097 12.01C6.02997 12.01 6.61897 12.01 7.20897 12.01C7.55097 12.01 7.73397 12.168 7.74097 12.449C7.74567 12.5175 7.73513 12.5861 7.71012 12.65C7.6851 12.7139 7.64624 12.7714 7.59631 12.8185C7.54639 12.8655 7.48665 12.9009 7.4214 12.9221C7.35615 12.9433 7.28702 12.9497 7.21897 12.941C6.03164 12.9457 4.84397 12.9457 3.65597 12.941C3.58818 12.9506 3.51911 12.9452 3.45366 12.9251C3.38821 12.905 3.328 12.8707 3.27731 12.8247C3.22661 12.7787 3.18668 12.722 3.16035 12.6588C3.13402 12.5956 3.12194 12.5274 3.12497 12.459C3.12497 12.172 3.30597 12.012 3.64597 12.01C4.24597 12.01 4.84597 12.01 5.44597 12.01M7.28397 12.126L7.27897 12.093H3.64097C3.64097 12.104 3.64097 12.115 3.64097 12.126H7.28397ZM3.74097 12.804V12.829H7.04097V12.804H3.74097Z" fill="white"/>
</g>
</svg>
