<svg width="20" height="29" viewBox="0 0 20 29" fill="none" xmlns="http://www.w3.org/2000/svg">
<mask id="mask0_282_806" style="mask-type:luminance" maskUnits="userSpaceOnUse" x="0" y="0" width="20" height="29">
<path d="M19.6691 0.687012H0.766113V28.263H19.6691V0.687012Z" fill="white"/>
</mask>
<g mask="url(#mask0_282_806)">
<path d="M16.5331 28.2589C15.6681 28.2589 14.8171 28.2689 13.9681 28.2429C13.8841 28.2429 13.7591 28.0189 13.7341 27.8839C13.3481 25.8249 12.9821 23.7629 12.5931 21.7049C12.5047 21.351 12.3941 21.003 12.2621 20.6629H12.1041C12.0153 20.8964 11.946 21.1369 11.8971 21.3819C11.6421 23.5089 11.3871 25.6359 11.1681 27.7659C11.1291 28.1419 11.0431 28.2839 10.6541 28.2659C10.0681 28.2369 9.47911 28.2589 8.85411 28.2589C8.93111 23.6099 9.22711 19.0109 9.03011 14.3719C8.68142 14.8371 8.29405 15.272 7.87211 15.6719C7.57767 15.8947 7.35064 16.1946 7.21614 16.5384C7.08165 16.8822 7.04495 17.2565 7.11011 17.6199C7.13979 18.0223 7.1428 18.4262 7.11911 18.8289C7.13864 18.9728 7.12505 19.1192 7.07938 19.257C7.0337 19.3948 6.95716 19.5203 6.85558 19.624C6.75399 19.7277 6.63006 19.8069 6.49324 19.8554C6.35642 19.9039 6.21033 19.9205 6.06611 19.9039C4.82277 19.9139 3.57944 19.9139 2.33611 19.9039C1.65211 19.8979 1.32611 19.5499 1.31711 18.8539C1.31711 18.6049 1.30211 18.3539 1.31711 18.1079C1.35299 17.9572 1.33917 17.799 1.27771 17.6568C1.21626 17.5146 1.11046 17.3961 0.976108 17.3189C0.910922 17.2761 0.8587 17.2163 0.825108 17.1459C0.721884 16.3418 0.832609 15.5246 1.14611 14.7769C1.24013 14.6635 1.29672 14.5238 1.30811 14.3769C1.32911 13.8959 1.31811 13.4139 1.32011 12.9319C1.32011 12.1319 1.60411 11.8439 2.40211 11.8059C2.46311 11.8059 2.52411 11.7939 2.61711 11.7839C2.72311 11.0699 3.21711 10.9289 3.84211 10.9659C4.19811 10.9869 4.55711 10.9659 4.91411 10.9709C5.57511 10.9779 5.74911 11.1119 5.90511 11.6179L7.20511 12.3349C7.36011 11.9889 7.56411 11.5349 7.76811 11.0729C7.99544 10.5629 8.22211 10.0526 8.44811 9.54194C8.55276 9.28919 8.72454 9.06986 8.94487 8.9077C9.16519 8.74555 9.42567 8.64672 9.69811 8.62194C11.1627 8.40642 12.6562 8.50252 14.0811 8.90394C14.9047 9.20191 15.5995 9.77619 16.0471 10.5289C17.4151 12.4719 18.6141 14.5284 19.6311 16.6759C19.6627 16.755 19.6751 16.8405 19.6673 16.9254C19.6595 17.0102 19.6316 17.0919 19.5861 17.1639C19.2689 17.5155 19.0365 17.9351 18.9066 18.3905C18.7768 18.8459 18.753 19.3249 18.8371 19.7909C18.8511 19.9139 18.8371 20.0389 18.8371 20.1639C18.8431 20.5329 18.6651 20.6979 18.2941 20.6949C17.4391 20.6869 16.5841 20.6949 15.7301 20.6949H15.1661L16.5301 28.2599M2.61711 12.1359C1.86511 12.0359 1.60411 12.2599 1.60011 12.9719C1.60011 13.4529 1.60011 13.9349 1.61011 14.4159C1.60041 14.5367 1.62911 14.6575 1.69211 14.7609C1.97904 15.1035 2.15132 15.5274 2.18468 15.973C2.21805 16.4186 2.11083 16.8635 1.87811 17.2449C1.66566 17.7638 1.57533 18.3246 1.61411 18.8839C1.60711 19.3899 1.84711 19.6079 2.36811 19.6099C3.59477 19.6159 4.82177 19.6159 6.04911 19.6099C6.58011 19.6099 6.82111 19.3679 6.82211 18.8399C6.82744 16.8519 6.82744 14.8639 6.82211 12.8759C6.82211 12.3029 6.54611 12.0759 5.97111 12.1469C5.80411 12.9799 5.63111 13.1169 4.74211 13.1169H3.76611C2.95811 13.1169 2.76611 12.9569 2.62111 12.1369M14.9141 17.2439H18.1611C17.3191 15.7994 16.2184 14.5221 14.9141 13.4759V17.2439Z" fill="white"/>
<path d="M9.2081 2.778C9.3461 2.365 9.43911 2.022 9.57511 1.697C9.67834 1.39004 9.87915 1.12527 10.1469 0.943092C10.4147 0.760914 10.7347 0.671329 11.0581 0.688004C11.9209 0.722914 12.7773 0.852014 13.6121 1.073C14.7841 1.407 15.1271 2.013 15.0661 3.229C15.0371 3.815 15.0471 4.404 14.9921 4.987C14.9538 5.40617 14.8299 5.81302 14.6282 6.18242C14.4264 6.55181 14.151 6.8759 13.819 7.13464C13.487 7.39339 13.1055 7.58129 12.698 7.68674C12.2905 7.79219 11.8657 7.81294 11.4499 7.74771C11.0341 7.68249 10.636 7.53266 10.2804 7.30751C9.92477 7.08236 9.6191 6.78666 9.38228 6.43869C9.14546 6.09072 8.98252 5.69788 8.90355 5.28444C8.82457 4.87101 8.83123 4.44577 8.92311 4.035C10.3421 4.798 11.7391 4.429 13.2481 4.044C12.0761 2.867 10.6711 2.873 9.2071 2.776" fill="white"/>
<path d="M12.7951 4.02204C11.5481 4.18904 10.2951 4.61504 9.06711 3.86704C8.7279 3.59819 8.3177 3.43401 7.88667 3.39458C7.45564 3.35516 7.02246 3.44219 6.64011 3.64504L6.55811 3.47904C6.68411 3.38604 6.79911 3.23704 6.93711 3.21004C7.44741 3.08338 7.96961 3.01065 8.4951 2.99304C9.46942 3.0059 10.4419 3.08273 11.4061 3.22304C11.9047 3.35947 12.3854 3.55449 12.8381 3.80404L12.7941 4.02304" fill="white"/>
<path d="M6.01099 14.479H2.38599V15.043H6.01099V14.479Z" fill="white"/>
<path d="M6.01902 17.431H2.37402V17.984H6.01902V17.431Z" fill="white"/>
<path d="M6.02009 15.458H2.39209V16.012H6.02009V15.458Z" fill="white"/>
<path d="M6.01412 16.475H2.37012V17.016H6.01412V16.475Z" fill="white"/>
</g>
</svg>
