<svg width="16" height="14" viewBox="0 0 16 14" fill="none" xmlns="http://www.w3.org/2000/svg">
<path d="M7.48911 13.549L1.61311 7.73297C1.19378 7.31911 0.860826 6.82608 0.633577 6.28251C0.406327 5.73893 0.289307 5.15563 0.289307 4.56647C0.289307 3.9773 0.406327 3.394 0.633577 2.85043C0.860826 2.30685 1.19378 1.81383 1.61311 1.39997L1.74411 1.27497C2.60341 0.492882 3.72982 0.0699431 4.89151 0.0931955C6.0532 0.116448 7.16178 0.584122 7.98911 1.39997L7.97911 1.39197L8.09911 1.27897C8.93548 0.517387 10.0259 0.095301 11.1571 0.095301C12.2883 0.095301 13.3787 0.517387 14.2151 1.27897L14.3461 1.40397C14.7654 1.81783 15.0984 2.31085 15.3256 2.85443C15.5529 3.398 15.6699 3.9813 15.6699 4.57047C15.6699 5.15963 15.5529 5.74293 15.3256 6.28651C15.0984 6.83008 14.7654 7.32311 14.3461 7.73697L8.47011 13.549C8.33908 13.6784 8.1623 13.751 7.97811 13.751C7.79391 13.751 7.61713 13.6784 7.48611 13.549H7.48911Z" fill="white"/>
</svg>
