<svg width="20" height="21" viewBox="0 0 20 21" fill="none" xmlns="http://www.w3.org/2000/svg">
<path d="M16.4349 10.637C16.6324 10.6374 16.8229 10.7101 16.9703 10.8415C17.1177 10.9729 17.2119 11.1538 17.2349 11.35L17.2399 11.444V18.708C17.2395 18.9055 17.1667 19.096 17.0353 19.2434C16.9039 19.3908 16.723 19.485 16.5269 19.508L16.4329 19.513H3.52088C3.32339 19.5126 3.13289 19.4398 2.98545 19.3084C2.83802 19.177 2.74388 18.9961 2.72088 18.8L2.71388 18.708V11.444C2.71275 11.2373 2.79093 11.0381 2.93232 10.8874C3.0737 10.7367 3.26751 10.646 3.4738 10.6339C3.68009 10.6219 3.88315 10.6894 4.04112 10.8227C4.19909 10.9559 4.29994 11.1446 4.32288 11.35L4.32788 11.444V17.901H15.6279V11.444C15.6282 11.2465 15.701 11.056 15.8324 10.9086C15.9638 10.7611 16.1447 10.667 16.3409 10.644L16.4349 10.637Z" fill="white"/>
<path d="M10.098 9.10503L9.97798 9.00503L9.85798 9.10503C9.33066 9.53679 8.67952 9.78934 7.99898 9.82603H7.82598C7.08542 9.82748 6.36715 9.57275 5.79298 9.10503L5.66998 9.00003L5.60298 9.06003C5.2386 9.37044 4.80963 9.59576 4.34726 9.71961C3.88489 9.84346 3.40073 9.86274 2.92998 9.77603L2.76798 9.74203C2.06171 9.57389 1.43295 9.17206 0.983698 8.60174C0.534446 8.03142 0.291047 7.32605 0.29298 6.60003C0.293327 6.45451 0.333066 6.31179 0.40798 6.18703L2.82998 2.15103C2.90157 2.03164 3.00282 1.9328 3.1239 1.86411C3.24498 1.79543 3.38177 1.75923 3.52098 1.75903L16.436 1.75903C16.5753 1.75915 16.7123 1.79531 16.8335 1.864C16.9548 1.93268 17.0562 2.03156 17.128 2.15103L19.549 6.18703C19.6242 6.31169 19.6643 6.45442 19.665 6.60003C19.6659 7.21587 19.4903 7.81907 19.1591 8.33824C18.8278 8.85741 18.3548 9.27081 17.7959 9.52951C17.2371 9.78822 16.6158 9.88139 16.0056 9.79801C15.3955 9.71464 14.8219 9.45819 14.353 9.05903L14.285 8.99903L14.164 9.10403C13.6365 9.53555 12.9855 9.78806 12.305 9.82503H12.131C11.3906 9.82668 10.6723 9.57232 10.098 9.10503Z" fill="white"/>
<path d="M11.5929 13.0591C11.7904 13.0595 11.9809 13.1322 12.1283 13.2636C12.2757 13.395 12.3699 13.5759 12.3929 13.7721L12.3979 13.8661V18.7091C12.399 18.9157 12.3208 19.1149 12.1794 19.2656C12.0381 19.4163 11.8443 19.5071 11.638 19.5191C11.4317 19.5312 11.2286 19.4636 11.0706 19.3304C10.9127 19.1972 10.8118 19.0084 10.7889 18.8031L10.7859 18.7091V14.6731H9.17088V18.7091C9.17052 18.9066 9.09774 19.0971 8.96634 19.2445C8.83494 19.3919 8.65403 19.4861 8.45788 19.5091L8.36388 19.5141C8.16639 19.5137 7.97589 19.4409 7.82846 19.3095C7.68102 19.1781 7.58689 18.9972 7.56388 18.8011L7.55688 18.7091V13.8661C7.55725 13.6686 7.63003 13.4781 7.76143 13.3307C7.89283 13.1832 8.07374 13.0891 8.26988 13.0661L8.36388 13.0591H11.5929Z" fill="white"/>
</svg>
