<svg width="18" height="18" viewBox="0 0 18 18" fill="none" xmlns="http://www.w3.org/2000/svg">
<path d="M13.173 4.66589C13.3154 4.66596 13.4544 4.70946 13.5714 4.79058C13.6885 4.8717 13.778 4.98658 13.828 5.11989L13.851 5.19589L14.472 7.67989L16.982 8.93489C17.0848 8.98638 17.1734 9.0624 17.2398 9.15623C17.3063 9.25007 17.3486 9.35882 17.363 9.47289L17.368 9.55989V13.7549C17.3677 13.9261 17.3047 14.0913 17.1908 14.2192C17.0769 14.3471 16.9201 14.4288 16.75 14.4489H16.668H13.054C12.8771 14.4466 12.7075 14.3774 12.5795 14.2551C12.4516 14.1329 12.3746 13.9667 12.3642 13.7901C12.3539 13.6134 12.4108 13.4393 12.5235 13.3029C12.6363 13.1665 12.7965 13.0779 12.972 13.0549H13.054H15.97V9.99189L13.56 8.78689C13.4046 8.70897 13.2838 8.57601 13.221 8.41389L13.195 8.33089L12.626 6.06589H8.21003C8.03759 6.06705 7.8708 6.00452 7.74162 5.89029C7.61244 5.77606 7.52998 5.61817 7.51003 5.44689V5.36589C7.50884 5.19361 7.57123 5.02695 7.68525 4.89779C7.79928 4.76864 7.95693 4.68607 8.12803 4.66589H8.21003H13.173Z" fill="white"/>
<path d="M1.28789 3.96692C1.45914 3.96721 1.62434 4.03026 1.75223 4.14415C1.88012 4.25803 1.96183 4.41485 1.98189 4.58492L1.98789 4.66692V13.0569H6.18089V7.46692C6.1797 7.29464 6.24209 7.12797 6.35612 6.99882C6.47014 6.86966 6.62779 6.7871 6.79889 6.76692H6.88089C7.05214 6.76721 7.21734 6.83026 7.34523 6.94415C7.47312 7.05803 7.55483 7.21485 7.57489 7.38492V7.46692V13.7549C7.5746 13.9262 7.51155 14.0914 7.39766 14.2193C7.28378 14.3472 7.12696 14.4289 6.95689 14.4489H6.87489H1.28789C1.11653 14.4503 0.950615 14.3887 0.8216 14.2759C0.692585 14.1631 0.609429 14.0069 0.587891 13.8369L0.587891 13.7549V4.66692C0.587891 4.48127 0.66164 4.30322 0.792916 4.17194C0.924191 4.04067 1.10224 3.96692 1.28789 3.96692Z" fill="white"/>
<path d="M8.27881 14.457C8.27881 13.9032 8.44303 13.3618 8.75069 12.9014C9.05836 12.4409 9.49566 12.082 10.0073 11.8701C10.5189 11.6582 11.0819 11.6027 11.6251 11.7108C12.1682 11.8188 12.6671 12.0855 13.0587 12.4771C13.4503 12.8687 13.717 13.3676 13.825 13.9107C13.933 14.4539 13.8776 15.0169 13.6657 15.5285C13.4537 16.0401 13.0949 16.4774 12.6344 16.7851C12.1739 17.0928 11.6326 17.257 11.0788 17.257C10.3362 17.257 9.62401 16.962 9.09891 16.4369C8.57381 15.9118 8.27881 15.1996 8.27881 14.457Z" fill="white"/>
<path d="M0.587894 4.67095C0.586905 3.84125 0.831971 3.0299 1.2921 2.33949C1.75223 1.64908 2.40676 1.11061 3.17292 0.79219C3.93907 0.473767 4.78245 0.389687 5.59639 0.550583C6.41033 0.711478 7.15829 1.11012 7.74567 1.6961C8.33305 2.28208 8.73347 3.02908 8.89631 3.84264C9.05914 4.6562 8.97707 5.49977 8.66048 6.26668C8.34388 7.0336 7.80698 7.68941 7.11767 8.15118C6.42835 8.61296 5.61759 8.85996 4.78789 8.86095C3.67571 8.86095 2.60894 8.41982 1.82158 7.63433C1.03421 6.84884 0.590542 5.78312 0.587894 4.67095Z" fill="white"/>
<path d="M4.78398 2.56799C4.95523 2.56828 5.12043 2.63134 5.24833 2.74522C5.37622 2.85911 5.45792 3.01592 5.47798 3.18599L5.48398 3.26799V3.96799H6.18398C6.35523 3.96828 6.52043 4.03134 6.64833 4.14522C6.77622 4.25911 6.85792 4.41592 6.87798 4.58599V4.66799C6.8777 4.83924 6.81464 5.00444 6.70076 5.13233C6.58687 5.26023 6.43005 5.34193 6.25998 5.36199L6.18398 5.36799H4.78398C4.61124 5.3691 4.44419 5.30629 4.31497 5.19165C4.18575 5.07701 4.10348 4.91864 4.08398 4.74699V4.66799V3.26799C4.08398 3.08234 4.15773 2.90429 4.28901 2.77302C4.42029 2.64174 4.59833 2.56799 4.78398 2.56799Z" fill="white"/>
</svg>
