<svg width="16" height="17" viewBox="0 0 16 17" fill="none" xmlns="http://www.w3.org/2000/svg">
<path d="M4.31712 15.407C4.68494 15.407 4.98312 15.1088 4.98312 14.741C4.98312 14.3731 4.68494 14.075 4.31712 14.075C3.9493 14.075 3.65112 14.3731 3.65112 14.741C3.65112 15.1088 3.9493 15.407 4.31712 15.407Z" fill="#444444"/>
<path d="M13.6391 15.407C14.007 15.407 14.3051 15.1088 14.3051 14.741C14.3051 14.3731 14.007 14.075 13.6391 14.075C13.2713 14.075 12.9731 14.3731 12.9731 14.741C12.9731 15.1088 13.2713 15.407 13.6391 15.407Z" fill="#444444"/>
<path d="M4.31617 13.375C4.0462 13.375 3.78229 13.4551 3.55782 13.605C3.33335 13.755 3.15839 13.9682 3.05508 14.2176C2.95176 14.4671 2.92473 14.7415 2.9774 15.0063C3.03007 15.2711 3.16007 15.5143 3.35097 15.7052C3.54187 15.8961 3.78509 16.0261 4.04987 16.0788C4.31466 16.1314 4.58911 16.1044 4.83854 16.0011C5.08796 15.8978 5.30114 15.7228 5.45113 15.4984C5.60112 15.2739 5.68117 15.01 5.68117 14.74C5.68117 14.378 5.53736 14.0308 5.28137 13.7748C5.02539 13.5188 4.67819 13.375 4.31617 13.375Z" fill="white"/>
<path d="M13.6392 13.375C13.3692 13.375 13.1053 13.4551 12.8808 13.605C12.6563 13.755 12.4814 13.9682 12.3781 14.2176C12.2748 14.4671 12.2477 14.7415 12.3004 15.0063C12.3531 15.2711 12.4831 15.5143 12.674 15.7052C12.8649 15.8961 13.1081 16.0261 13.3729 16.0788C13.6377 16.1314 13.9121 16.1044 14.1615 16.0011C14.411 15.8978 14.6241 15.7228 14.7741 15.4984C14.9241 15.2739 15.0042 15.01 15.0042 14.74C15.0042 14.378 14.8604 14.0308 14.6044 13.7748C14.3484 13.5188 14.0012 13.375 13.6392 13.375Z" fill="white"/>
<path d="M4.3161 12.11C4.16048 12.1099 4.00933 12.0579 3.88655 11.9623C3.76376 11.8667 3.67634 11.7329 3.6381 11.582L3.6231 11.503L2.3721 2.124H0.988102C0.815668 2.12516 0.648874 2.06263 0.519697 1.9484C0.390521 1.83417 0.308052 1.67628 0.288103 1.505V1.424C0.286917 1.25172 0.349307 1.08505 0.463331 0.955898C0.577355 0.826744 0.735003 0.744177 0.906102 0.723999L0.988102 0.723999H2.9881C3.14373 0.724119 3.29488 0.776096 3.41766 0.871716C3.54044 0.967335 3.62786 1.10115 3.6661 1.252L3.6781 1.331L4.0401 4.053H14.9701C15.0669 4.05269 15.1628 4.07247 15.2516 4.1111C15.3404 4.14973 15.4202 4.20636 15.486 4.27741C15.5518 4.34846 15.6021 4.43239 15.6338 4.52389C15.6655 4.61539 15.6778 4.71248 15.6701 4.809L15.6591 4.89L14.3271 11.549C14.2984 11.6933 14.225 11.8248 14.1173 11.925C14.0096 12.0251 13.8731 12.0888 13.7271 12.107H13.6451L4.3161 12.11Z" fill="white"/>
</svg>
